<?xml version="1.0" standalone="no"?>
<!DOCTYPE svg PUBLIC "-//W3C//DTD SVG 20010904//EN"
 "http://www.w3.org/TR/2001/REC-SVG-20010904/DTD/svg10.dtd">
<svg version="1.0" xmlns="http://www.w3.org/2000/svg"
 width="100.000000pt" height="38.000000pt" viewBox="0 0 100.000000 38.000000"
 preserveAspectRatio="xMidYMid meet">
<metadata>
Created by potrace 1.10, written by Peter Selinger 2001-2011
</metadata>
<g transform="translate(0.000000,38.000000) scale(0.100000,-0.100000)"
fill="#000000" stroke="none">
<path d="M405 371 c-58 -15 -125 -54 -210 -125 -19 -15 -35 -26 -35 -22 0 3 9
29 20 57 12 28 19 54 16 56 -8 9 -26 -8 -26 -23 0 -9 -10 -38 -22 -66 -18 -43
-23 -48 -33 -34 -16 21 -27 9 -12 -15 10 -16 5 -26 -39 -71 -53 -54 -78 -108
-50 -108 8 0 37 34 64 75 l50 75 16 -25 c9 -13 28 -36 43 -50 32 -30 139 -85
162 -84 9 0 -12 14 -46 30 -66 32 -163 112 -163 134 0 31 242 185 290 185 11
0 20 5 20 10 0 11 -2 11 -45 1z m-344 -279 c-5 -10 -18 -25 -27 -33 -16 -12
-17 -12 -9 1 10 18 37 50 42 50 2 0 -1 -8 -6 -18z"/>
<path d="M594 317 c-12 -17 -40 -63 -63 -101 -59 -100 -55 -121 14 -66 46 37
58 38 43 5 -13 -29 -6 -41 19 -30 10 5 26 7 36 6 10 -1 34 7 53 18 42 25 45
26 37 4 -6 -16 6 -16 49 2 13 5 15 2 11 -17 -5 -21 -3 -20 29 10 33 31 36 32
41 13 3 -12 12 -21 21 -21 20 0 92 36 101 50 9 15 -1 12 -45 -10 -49 -25 -56
-25 -63 1 -5 18 -8 19 -29 8 -21 -11 -22 -11 -10 4 8 9 12 24 9 34 -3 14 -7
11 -16 -13 -7 -18 -20 -34 -29 -37 -9 -3 -25 -8 -35 -12 -13 -6 -16 -3 -11 9
9 23 -12 20 -63 -9 -23 -14 -43 -21 -43 -16 0 13 55 51 74 51 9 0 16 5 16 10
0 22 -42 8 -86 -30 -48 -43 -63 -46 -44 -11 18 34 -14 38 -56 6 -19 -15 -37
-25 -40 -23 -2 3 23 45 56 94 33 49 60 92 60 96 0 17 -16 6 -36 -25z"/>
<path d="M336 264 c-23 -22 -20 -37 4 -24 11 6 20 17 20 25 0 19 -5 19 -24 -1z"/>
<path d="M380 177 c-36 -24 -73 -46 -82 -50 -26 -9 -22 13 8 44 15 16 21 29
15 33 -11 7 -61 -54 -61 -76 0 -23 10 -28 38 -17 17 7 28 7 30 1 2 -6 11 -8
20 -6 9 1 38 6 65 9 26 3 47 10 47 14 0 5 -17 15 -37 23 l-38 14 34 18 c27 14
39 16 52 7 19 -11 35 1 24 19 -13 20 -52 9 -115 -33z m20 -37 c12 -8 12 -10
-5 -10 -11 0 -31 -3 -45 -6 -24 -5 -24 -5 -6 10 23 18 35 20 56 6z"/>
</g>
</svg>
